<?xml version="1.0" encoding="UTF-8" standalone="no"?>
<!-- Created with Inkscape (http://www.inkscape.org/) -->

<svg
   width="71.859245mm"
   height="100.04477mm"
   viewBox="0 0 71.859245 100.04477"
   version="1.1"
   id="svg1"
   xml:space="preserve"
   xmlns:inkscape="http://www.inkscape.org/namespaces/inkscape"
   xmlns:sodipodi="http://sodipodi.sourceforge.net/DTD/sodipodi-0.dtd"
   xmlns="http://www.w3.org/2000/svg"
   xmlns:svg="http://www.w3.org/2000/svg"><sodipodi:namedview
     id="namedview1"
     pagecolor="#ffffff"
     bordercolor="#000000"
     borderopacity="0.25"
     inkscape:showpageshadow="2"
     inkscape:pageopacity="0.0"
     inkscape:pagecheckerboard="0"
     inkscape:deskcolor="#d1d1d1"
     inkscape:document-units="mm"><inkscape:page
       x="0"
       y="-1.3075108e-13"
       width="71.859245"
       height="100.04476"
       id="page2"
       margin="0"
       bleed="0" /></sodipodi:namedview><defs
     id="defs1"><style
       id="style1">.cls-1,.cls-2{fill:none;stroke:#000000;stroke-linecap:round;stroke-linejoin:round;stroke-width:1.5px;}.cls-2{fill-rule:evenodd;}</style></defs><g
     inkscape:label="Layer 1"
     inkscape:groupmode="layer"
     id="layer1"
     transform="translate(-68.319664,-15.76843)"><path
       style="fill:#63489a;stroke:none"
       d="m 111.81704,15.997038 c -2.94532,0.386727 -5.73866,0.742609 -8.56342,1.747959 -4.49113,1.59842 -8.954116,3.749566 -12.779252,6.61398 -14.283221,10.695851 -21.054804,28.171094 -22.011761,45.465293 -0.216566,3.913789 -0.244833,7.841127 0.330174,11.725799 1.070813,7.234276 3.778538,14.620206 8.29952,20.420451 9.501913,12.19058 25.818129,16.95664 40.389759,11.76585 9.05709,-3.22635 16.08412,-10.40583 20.32124,-18.88007 1.06314,-2.126283 1.92372,-4.353981 2.26254,-6.718988 0.11979,-0.83611 0.27853,-2.141706 -0.31819,-2.841255 -1.0767,-1.262279 -2.72696,0.436831 -3.13209,1.392062 -0.56788,1.338966 -0.91046,2.755658 -1.52035,4.084091 -1.79102,3.901092 -4.20819,7.291158 -7.11635,10.43021 -3.73823,4.03502 -9.02671,7.44956 -14.44914,8.58516 -8.32087,1.74263 -17.062007,-1.54644 -22.78007,-7.68531 C 85.604363,96.578327 83.151101,89.391019 81.878015,82.077049 79.29206,67.220532 81.694647,51.133153 89.709212,38.20601 95.318508,29.158457 104.96371,20.719879 116.29636,21.216109 c 6.36364,0.278647 13.51421,5.295196 11.38668,12.378831 -1.00084,3.332331 -3.98872,5.723343 -5.21897,8.95865 -0.81032,2.130972 -0.54277,5.029013 1.60524,6.275877 1.12674,0.654053 2.55518,0.664353 3.8206,0.562553 3.14611,-0.253084 5.76621,-2.717197 7.29852,-5.257491 2.84758,-4.720735 3.68418,-10.772386 1.47206,-15.941129 -4.03795,-9.434947 -15.15455,-13.468532 -24.84345,-12.196362 M 98.11557,53.450187 c -5.630972,0.07678 -5.440189,9.141681 0.263489,8.994948 5.729941,-0.147409 5.484781,-9.073333 -0.263489,-8.994948 m 24.24105,1.677005 c -2.38437,0.371489 -4.84711,1.04205 -6.57484,2.845734 -0.89569,0.935063 -1.4828,2.772069 -0.0104,3.52834 1.3279,0.682035 2.80258,-1.297185 3.95031,-1.761171 1.87176,-0.756681 4.00442,-0.796717 5.92852,-0.187654 1.16609,0.369117 2.4225,1.3816 3.68875,1.151851 1.96005,-0.355641 1.31057,-3.089789 0.2579,-4.010692 -1.71633,-1.501493 -5.05413,-1.907012 -7.24028,-1.566408 m 1.58094,14.635982 c -1.88075,0.448064 -2.78552,2.99923 -4.09588,4.239822 -2.92914,2.773204 -6.57601,4.627241 -10.65954,4.720461 -4.47124,0.102057 -8.86747,-2.146451 -11.7624,-5.473314 -1.233894,-1.417994 -2.890141,-4.242821 -5.09891,-2.561402 -2.601953,1.980732 0.816193,5.845608 2.369373,7.292429 0.426273,0.397076 0.8725,0.78238 1.317449,1.15846 5.317048,4.494113 12.734688,5.868863 19.366498,3.659981 4.05479,-1.350546 7.76272,-3.91789 10.00458,-7.573295 0.90481,-1.475311 2.77401,-5.255224 -0.38721,-5.520885 -0.34513,-0.029 -0.71602,-0.02276 -1.05396,0.05774 z"
       id="path52" /></g></svg>
